Coordinates
version=1
nRows=8
nColumns=34
inDegrees=yes

Units are S.I. units (second, meters, Newtons, ...)
If the header above contains a line with 'inDegrees', this indicates whether rotational values are in degrees (yes) or radians (no).

endheader
time	pelvis_tilt	pelvis_list	pelvis_rotation	pelvis_tx	pelvis_ty	pelvis_tz	hip_flexion_r	hip_adduction_r	hip_rotation_r	knee_angle_r	ankle_angle_r	subtalar_angle_r	mtp_angle_r	hip_flexion_l	hip_adduction_l	hip_rotation_l	knee_angle_l	ankle_angle_l	subtalar_angle_l	mtp_angle_l	lumbar_extension	lumbar_bending	lumbar_rotation	arm_flex_r	arm_add_r	arm_rot_r	elbow_flex_r	pro_sup_r	arm_flex_l	arm_add_l	arm_rot_l	elbow_flex_l	pro_sup_l
      2.46666670	     -3.02477004	      5.00812730	      2.85483495	      0.16835908	      0.97402513	     -0.01393150	     11.92851058	      3.07442306	     -3.50301352	     20.90564789	      7.23199239	    -16.32757523	      0.00000000	     34.47910579	     -3.19662880	     -1.88292654	     56.77446105	     -5.03845661	     -6.82195758	      0.00000000	    -10.66436851	     -2.96752564	     -3.12218009	     46.67686765	      3.52471502	     56.36897496	    122.12773579	     92.32036665	     57.08876855	      9.82816229	     64.40576239	    123.91990797	     71.26023563
      2.48333330	     -3.00651900	      5.28345117	      2.88338550	      0.16998599	      0.97555388	     -0.01391220	     11.28793872	      2.79744924	     -3.30750374	     19.88616881	      7.63149441	    -15.83969331	      0.00000000	     33.80800996	     -2.94079533	     -1.56775151	     57.47460321	     -4.37290942	     -7.15902784	      0.00000000	    -10.19305006	     -3.24145916	     -3.16533377	     46.51368167	      3.49078020	     56.60104425	    122.32998956	     92.30770746	     56.91274848	      9.89384977	     64.56930619	    123.65152744	     71.16070860
      2.50000000	     -2.78983651	      5.57384541	      3.05330491	      0.17146961	      0.97654904	     -0.01439213	     10.61519268	      2.42782119	     -3.55262349	     19.33317352	      8.34913021	    -15.08670394	      0.00000000	     32.85686456	     -2.69728743	     -1.40945536	     57.89476762	     -4.66618914	     -7.58412229	      0.00000000	     -9.96077698	     -3.57512971	     -3.25339137	     46.70460494	      3.50622532	     57.34958021	    122.72731714	     92.28129462	     57.18363808	     10.07924021	     64.83965657	    123.18826606	     70.88578184
      2.51666670	     -2.68911891	      5.65710023	      3.28921657	      0.17208542	      0.97743822	     -0.01430386	     10.23233122	      2.37044300	     -3.36821673	     19.04127450	      8.64437595	    -14.65538882	      0.00000000	     32.10039455	     -2.65551924	     -1.12352840	     58.08980213	     -4.88065987	     -8.22117569	      0.00000000	     -9.51783216	     -3.69006668	     -3.34272021	     46.48127943	      3.83442263	     58.15212427	    123.29554339	     92.28167119	     57.17384114	     10.20456000	     64.97103486	    123.20328862	     70.73310057
      2.53333330	     -2.48286384	      5.78184566	      3.30042553	      0.17266197	      0.97822164	     -0.01472783	      9.86934051	      2.20308675	     -3.47705773	     18.82915231	      8.92127451	    -13.98426345	      0.00000000	     31.11220564	     -2.59461111	     -0.95359482	     57.62206799	     -6.63497312	     -9.03034708	      0.00000000	     -9.26198718	     -3.75668893	     -3.24355383	     46.89886917	      4.04962170	     59.16617833	    124.12652812	     92.24797712	     57.14958809	     10.45848619	     65.21980391	    123.45985655	     70.44807647
      2.55000000	     -2.34487774	      5.79170053	      3.57358470	      0.17372673	      0.97735194	     -0.01550846	      9.44747273	      2.13523258	     -3.69274141	     18.58959224	      9.51686716	    -13.59594768	      0.00000000	     30.35763120	     -2.57438413	     -0.74857958	     57.37391565	     -8.36535515	    -10.17942073	      0.00000000	     -8.98253502	     -3.70377558	     -3.29682026	     46.91641391	      4.28678037	     59.55334322	    124.30931177	     92.17427843	     57.18350064	     10.59227067	     65.39872198	    123.71866775	     70.10878737
      2.56666670	     -2.32380022	      5.74837101	      3.74319868	      0.17436726	      0.97754357	     -0.01649069	      9.15510809	      2.13777652	     -3.80053132	     18.27606709	     10.02614503	    -13.63374463	      0.00000000	     29.74040406	     -2.63882016	     -0.59296081	     56.84237485	     -8.80189448	    -10.41581834	      0.00000000	     -8.59029966	     -3.59019871	     -3.36053176	     46.82200564	      4.37870863	     59.73418690	    124.84165427	     92.15186145	     57.05784118	     10.74445962	     65.54646925	    123.90651084	     69.96785096
      2.58333330	     -2.39199787	      5.72953682	      3.72833342	      0.17476696	      0.97833787	     -0.01550283	      9.08610978	      2.16049134	     -3.85322153	     18.21896152	     10.07576289	    -13.64616811	      0.00000000	     29.37837986	     -2.77633842	     -0.48986018	     56.49876000	     -8.77140405	    -10.47967116	      0.00000000	     -8.19193523	     -3.58260721	     -3.39738256	     46.90243254	      4.43347113	     59.72219060	    124.91732608	     92.15022913	     57.16216896	     10.83042139	     65.53297169	    123.94043566	     69.95531694
